{"asset":{"version":"2.0","generator":"THREE.GLTFExporter"},"scenes":[{"nodes":[0],"name":"AuxScene"}],"scene":0,"nodes":[{"mesh":0}],"bufferViews":[{"buffer":0,"byteOffset":0,"byteLength":52920,"target":34962,"byteStride":12},{"buffer":0,"byteOffset":52920,"byteLength":52920,"target":34962,"byteStride":12}],"buffers":[{"byteLength":105840,"uri":"data:application/octet-stream;base64,"}],"accessors":[{"bufferView":0,"componentType":5126,"count":4410,"max":[99.50001525878906,13.100000381469727,99.50001525878906],"min":[-99.4000015258789,0.10000000149011612,-99.4000015258789],"type":"VEC3"},{"bufferView":1,"componentType":5126,"count":4410,"max":[0,1,0.20835250616073608],"min":[-0.05471756309270859,0.976665735244751,0],"type":"VEC3"}],"materials":[{"pbrMetallicRoughness":{"baseColorFactor":[0.5019607843137255,0.5019607843137255,0.5019607843137255,1],"metallicFactor":0,"roughnessFactor":1}}],"meshes":[{"primitives":[{"mode":4,"attributes":{"POSITION":0,"NORMAL":1},"material":0}]}]}